HIERARCHY
ROOT Hips
{
	OFFSET 49.170502 -11.355215 95.699699
	CHANNELS 6 Xposition Yposition Zposition Xrotation Yrotation Zrotation
	JOINT spine
	{
		OFFSET 0.000000 -0.458069 7.965683
		CHANNELS 3 Xrotation Yrotation Zrotation
		JOINT spine1
		{
			OFFSET 0.000000 -0.000001 10.243103
			CHANNELS 3 Xrotation Yrotation Zrotation
			JOINT spine2
			{
				OFFSET 0.000000 -0.000002 9.814751
				CHANNELS 3 Xrotation Yrotation Zrotation
				JOINT Neck
				{
					OFFSET 0.000000 -1.201384 25.198608
					CHANNELS 3 Xrotation Yrotation Zrotation
					JOINT Head
					{
						OFFSET 0.000000 -0.000002 7.613144
						CHANNELS 3 Xrotation Yrotation Zrotation
						End Site
						{
							OFFSET 0.000000 6.077317 18.428101
						}
					}
				}
				JOINT RightShoulder
				{
					OFFSET -4.132698 0.575449 10.599197
					CHANNELS 3 Xrotation Yrotation Zrotation
					JOINT RightArm
					{
						OFFSET 0.000000 -0.000002 13.901794
						CHANNELS 3 Xrotation Yrotation Zrotation
						JOINT RightArmRoll
						{
							OFFSET 0.000000 -0.000002 7.017883
							CHANNELS 3 Xrotation Yrotation Zrotation
							JOINT RightForeArm
							{
								OFFSET 0.000000 -0.000003 20.440598
								CHANNELS 3 Xrotation Yrotation Zrotation
								JOINT RightForeArmRoll
								{
									OFFSET 0.000000 -0.000001 7.875153
									CHANNELS 3 Xrotation Yrotation Zrotation
									JOINT RightHand
									{
										OFFSET 0.000000 -0.000003 15.803696
										CHANNELS 3 Xrotation Yrotation Zrotation
										End Site
										{
											OFFSET 0.000000 0.000000 0.100006
										}
									}
								}
							}
						}
					}
				}
				JOINT LeftShoulder
				{
					OFFSET 4.132698 0.575449 10.599197
					CHANNELS 3 Xrotation Yrotation Zrotation
					JOINT LeftArm
					{
						OFFSET 0.000000 -0.000002 13.901794
						CHANNELS 3 Xrotation Yrotation Zrotation
						JOINT LeftArmRoll
						{
							OFFSET 0.000000 -0.000002 7.017883
							CHANNELS 3 Xrotation Yrotation Zrotation
							JOINT LeftForeArm
							{
								OFFSET 0.000000 -0.000003 20.440598
								CHANNELS 3 Xrotation Yrotation Zrotation
								JOINT LeftForeArmRoll
								{
									OFFSET 0.000000 -0.000001 7.875153
									CHANNELS 3 Xrotation Yrotation Zrotation
									JOINT LeftHand
									{
										OFFSET 0.000000 -0.000003 15.803696
										CHANNELS 3 Xrotation Yrotation Zrotation
										End Site
										{
											OFFSET 0.000000 0.000000 0.100006
										}
									}
								}
							}
						}
					}
				}
			}
		}
	}
	JOINT RightUpLeg
	{
		OFFSET -7.060478 1.086100 -1.294701
		CHANNELS 3 Xrotation Yrotation Zrotation
		JOINT RightUpLegRoll
		{
			OFFSET 0.000000 -0.000003 18.530800
			CHANNELS 3 Xrotation Yrotation Zrotation
			JOINT RightLeg
			{
				OFFSET 0.000000 0.000004 -22.947601
				CHANNELS 3 Xrotation Yrotation Zrotation
				JOINT RightLegRoll
				{
					OFFSET 0.000000 -0.000004 23.022598
					CHANNELS 3 Xrotation Yrotation Zrotation
					JOINT RightFoot
					{
						OFFSET 0.000000 -0.000004 19.162498
						CHANNELS 3 Xrotation Yrotation Zrotation
						JOINT RightToeBase
						{
							OFFSET 0.000000 -0.000002 16.018799
							CHANNELS 3 Xrotation Yrotation Zrotation
							End Site
							{
								OFFSET 0.006790 0.894204 7.757828
							}
						}
					}
				}
			}
		}
	}
	JOINT LeftUpLeg
	{
		OFFSET 7.060478 1.086100 -1.294701
		CHANNELS 3 Xrotation Yrotation Zrotation
		JOINT LeftUpLegRoll
		{
			OFFSET 0.000000 -0.000003 18.530899
			CHANNELS 3 Xrotation Yrotation Zrotation
			JOINT LeftLeg
			{
				OFFSET 0.000000 -0.000004 22.947495
				CHANNELS 3 Xrotation Yrotation Zrotation
				JOINT LeftLegRoll
				{
					OFFSET 0.000000 -0.000004 23.235504
					CHANNELS 3 Xrotation Yrotation Zrotation
					JOINT LeftFoot
					{
						OFFSET 0.000000 -0.000003 18.949600
						CHANNELS 3 Xrotation Yrotation Zrotation
						JOINT LeftToeBase
						{
							OFFSET 0.000000 -0.000003 16.018799
							CHANNELS 3 Xrotation Yrotation Zrotation
							End Site
							{
								OFFSET -0.030430 0.894206 7.757812
							}
						}
					}
				}
			}
		}
	}
}
MOTION
Frames: 8
Frame Time: 0.041667
82.747009 -17.690714 93.153214 -2.979339 9.942949 119.658904 0.033228 -0.605208 1.613645 4.087026 -1.193050 3.233019 5.731155 -1.154254 3.247072 3.747572 54.250164 -7.133255 15.382645 -47.510779 -2.581873 23.499466 -12.176279 42.895948 -43.907328 -167.322286 -41.771945 0.000001 -0.000002 -0.000009 11.415954 3.390475 -0.448172 0.000002 0.000010 -3.007082 -5.000213 -7.998684 0.000131 -132.951121 79.049181 139.377878 -201.996110 109.289461 224.525872 0.000002 -0.000000 -0.000007 96.792837 -0.877335 14.162080 0.000013 -0.000013 3.000299 -4.999806 7.998776 0.000064 10.476743 -183.161549 -4.265549 -179.999991 0.000004 -1.100995 172.209928 -3.313209 -0.760999 0.000001 -0.000003 0.087853 68.264278 6.764407 2.508040 44.970570 -10.090217 -6.468312 -30.679704 189.492329 11.363737 -0.000018 -0.000004 -0.645905 -12.588127 -1.683813 0.304023 -0.000006 0.000001 -0.492879 72.964923 -6.793640 -2.114009 25.456945 7.355551 -0.000011 
82.685410 -17.755213 93.152725 -2.999658 9.955182 119.780058 0.038361 -0.611698 1.617829 4.097519 -1.205820 3.241656 5.741645 -1.166929 3.255853 3.801647 54.192531 -7.196310 15.366158 -47.483017 -2.625282 23.494799 -12.222852 42.867104 -43.709939 -167.400150 -41.714209 0.000002 -0.000003 -0.000009 11.366909 3.326412 -0.446964 0.000000 0.000010 -3.007081 -5.000208 -7.998687 0.000132 -132.737609 79.068572 139.164326 -202.207737 109.270773 224.787850 0.000001 0.000000 -0.000007 96.807468 -0.895121 14.190245 0.000010 -0.000013 3.000301 -4.999800 7.998777 0.000063 10.446649 -183.196260 -4.288464 -179.999991 0.000006 -1.099996 172.205106 -3.319112 -0.762096 0.000004 -0.000003 0.087825 68.273574 6.764941 2.506175 44.972196 -10.107433 -6.515930 -30.710644 189.525797 11.368081 -0.000019 -0.000004 -0.647081 -12.602400 -1.678888 0.304817 -0.000005 0.000001 -0.494189 72.980933 -6.799849 -2.094969 25.456945 7.355550 -0.000011 
82.706001 -17.744312 93.143005 -3.016303 9.963468 119.899354 0.044388 -0.617768 1.621571 4.109789 -1.217753 3.249441 5.753910 -1.178753 3.263784 3.854156 54.135328 -7.258931 15.348041 -47.457288 -2.669464 23.493209 -12.270259 42.842075 -43.519186 -167.477099 -41.656514 0.000002 -0.000003 -0.000009 11.336757 3.265887 -0.446718 -0.000003 0.000012 -3.007081 -5.000206 -7.998686 0.000132 -132.521256 79.087396 138.948164 -202.409897 109.249682 225.036715 0.000001 -0.000000 -0.000009 96.818027 -0.910643 14.215252 0.000013 -0.000014 3.000299 -4.999802 7.998777 0.000064 10.423850 -183.228950 -4.309434 -179.999991 0.000005 -1.099000 172.202402 -3.325033 -0.762065 -0.000000 -0.000003 0.087781 68.281743 6.765599 2.504000 44.972653 -10.123908 -6.561754 -30.735848 189.559811 11.373236 -0.000017 -0.000004 -0.648351 -12.617671 -1.674025 0.305628 -0.000006 0.000001 -0.495679 72.998767 -6.805974 -2.075805 25.456947 7.355545 -0.000010 
82.681305 -17.758209 93.140106 -3.030655 9.969406 120.019155 0.050947 -0.623393 1.624956 4.123110 -1.228764 3.256566 5.767227 -1.189689 3.271038 3.906590 54.075895 -7.323255 15.326760 -47.431989 -2.716267 23.492224 -12.318439 42.817520 -43.333599 -167.553515 -41.597908 0.000001 -0.000002 -0.000009 11.329415 3.209954 -0.447745 0.000000 0.000012 -3.007081 -5.000213 -7.998686 0.000131 -132.302923 79.106097 138.729980 -202.602289 109.227183 225.274761 0.000002 -0.000000 -0.000006 96.825117 -0.924772 14.236133 0.000011 -0.000012 3.000300 -4.999803 7.998776 0.000063 10.404945 -183.260628 -4.329179 -179.999991 0.000006 -1.097004 172.200243 -3.330972 -0.763005 -0.000000 -0.000004 0.087731 68.289174 6.766234 2.501867 44.973377 -10.140050 -6.606514 -30.756707 189.595082 11.378495 -0.000018 -0.000003 -0.649605 -12.632150 -1.669159 0.306382 -0.000005 0.000001 -0.497171 73.016744 -6.812168 -2.056739 25.456945 7.355549 -0.000011 
82.678802 -17.769913 93.130112 -3.042882 9.973156 120.139462 0.057978 -0.628620 1.628005 4.137358 -1.238984 3.263097 5.781476 -1.199818 3.277696 3.958954 54.014540 -7.388866 15.302487 -47.407206 -2.765347 23.491717 -12.367149 42.793287 -43.152616 -167.630013 -41.538803 0.000002 -0.000001 -0.000009 11.341048 3.157452 -0.449719 -0.000001 0.000010 -3.007080 -5.000206 -7.998683 0.000132 -132.083223 79.124661 138.510499 -202.786363 109.203441 225.503559 0.000001 -0.000001 -0.000004 96.829235 -0.937554 14.254946 0.000012 -0.000013 3.000299 -4.999805 7.998777 0.000064 10.389434 -183.290298 -4.347567 -179.999991 0.000007 -1.095996 172.198481 -3.335912 -0.762781 0.000002 -0.000003 0.087678 68.295990 6.766883 2.499570 44.974009 -10.155761 -6.650404 -30.773755 189.630736 11.384261 -0.000018 -0.000003 -0.650854 -12.645924 -1.664307 0.307093 -0.000005 0.000001 -0.498687 73.035144 -6.818305 -2.037538 25.456947 7.355549 -0.000011 
82.673103 -17.758507 93.119919 -3.053185 9.974941 120.258362 0.065424 -0.633502 1.630784 4.152417 -1.248497 3.269082 5.796534 -1.209257 3.283798 4.011226 53.951558 -7.455332 15.275341 -47.382791 -2.816525 23.491795 -12.416445 42.769668 -42.976182 -167.705760 -41.480791 0.000002 -0.000003 -0.000010 11.367932 3.107216 -0.452351 -0.000001 0.000012 -3.007080 -5.000209 -7.998685 0.000131 -131.863345 79.143014 138.290826 -202.963279 109.178894 225.724160 -0.000000 -0.000001 -0.000006 96.830772 -0.949159 14.271653 0.000013 -0.000012 3.000299 -4.999807 7.998778 0.000064 10.377217 -183.318958 -4.364862 -179.999991 0.000005 -1.094995 172.197033 -3.341842 -0.762686 0.000001 -0.000004 0.087618 68.302281 6.767568 2.497318 44.974412 -10.171163 -6.693086 -30.787286 189.666703 11.390594 -0.000017 -0.000004 -0.652107 -12.659096 -1.659508 0.307768 -0.000004 0.000001 -0.500224 73.053764 -6.824440 -2.018421 25.456947 7.355548 -0.000010 
82.664200 -17.776112 93.118500 -3.061749 9.974970 120.376839 0.073222 -0.638091 1.633305 4.168177 -1.257417 3.274607 5.812295 -1.218108 3.289427 4.063431 53.887662 -7.522359 15.245739 -47.358626 -2.869116 23.492444 -12.466072 42.746599 -42.803884 -167.780646 -41.424575 0.000004 -0.000001 -0.000011 11.406459 3.058093 -0.455364 0.000001 0.000013 -3.007080 -5.000213 -7.998685 0.000132 -131.644397 79.161127 138.072083 -203.134307 109.153786 225.937740 0.000002 -0.000000 -0.000006 96.830192 -0.959866 14.285278 0.000010 -0.000014 3.000300 -4.999807 7.998776 0.000064 10.367679 -183.345623 -4.380933 -179.999991 0.000006 -1.094002 172.195845 -3.346785 -0.763438 0.000003 -0.000004 0.087562 68.308401 6.768345 2.494591 44.974579 -10.186005 -6.734561 -30.797794 189.703860 11.396726 -0.000018 -0.000004 -0.653371 -12.671872 -1.654791 0.308413 -0.000004 0.000001 -0.501804 73.072792 -6.830490 -1.999467 25.456945 7.355548 -0.000012 
82.668007 -17.758112 93.114510 -3.068756 9.973452 120.493990 0.081316 -0.642435 1.635609 4.184520 -1.265838 3.279727 5.828640 -1.226479 3.294642 4.115486 53.822936 -7.589467 15.213852 -47.334737 -2.922775 23.493648 -12.516009 42.724223 -42.635171 -167.855273 -41.370528 0.000001 -0.000003 -0.000009 11.452902 3.008916 -0.458495 -0.000000 0.000013 -3.007081 -5.000212 -7.998686 0.000132 -131.426773 79.179064 137.854596 -203.300690 109.128494 226.145747 0.000002 0.000000 -0.000009 96.827815 -0.969607 14.298845 0.000014 -0.000015 3.000298 -4.999806 7.998778 0.000066 10.360743 -183.371263 -4.396019 -179.999991 0.000006 -1.093999 172.194738 -3.352718 -0.763315 0.000001 -0.000005 0.087501 68.314145 6.769306 2.491626 44.974282 -10.200362 -6.774781 -30.805707 189.740374 11.403688 -0.000017 -0.000004 -0.654652 -12.684447 -1.650182 0.309040 -0.000005 0.000001 -0.503431 73.092149 -6.836524 -1.980486 25.456945 7.355549 -0.000011 
